{
  "source": "C:\\Users\\Peter\\Desktop\\stuff\\MIUN\\quantitative_research\\video_compression\\videos\\BVI-HD\\BVI-HD_CDVL_videos\\ORIG\\Bookcase_1920x1080_60fps.mp4",
  "output": "C:\\Users\\Peter\\Desktop\\stuff\\MIUN\\quantitative_research\\video_compression\\compressed_videos\\BVI-HD\\h264\\4\\Bookcase_1920x1080_60fps_h264.mp4",
  "codec": "h264",
  "ok": "Input #0, mov,mp4,m4a,3gp,3g2,mj2, from 'C:\\Users\\Peter\\Desktop\\stuff\\MIUN\\quantitative_research\\video_compression\\videos\\BVI-HD\\BVI-HD_CDVL_videos\\ORIG\\Bookcase_1920x1080_60fps.mp4':\n  Metadata:\n    major_brand     : isom\n    minor_version   : 512\n    compatible_brands: isomiso2avc1mp41\n    encoder         : Lavf54.28.101\n  Duration: 00:00:05.00, start: 0.000000, bitrate: 336321 kb/s\n  Stream #0:0[0x1](und): Video: h264 (High 4:4:4 Predictive) (avc1 / 0x31637661), yuv420p(progressive), 1920x1080, 336316 kb/s, 60 fps, 60 tbr, 60 tbn (default)\n    Metadata:\n      handler_name    : VideoHandler\n      vendor_id       : [0][0][0][0]\n[out#0/mp4 @ 0000026ef49d18c0] Codec AVOption b:a (set bitrate (in bits/s)) has not been used for any stream. The most likely reason is either wrong type (e.g. a video option with no video streams) or that it is a private option of some decoder which was not actually used for any stream.\nStream mapping:\n  Stream #0:0 -> #0:0 (h264 (native) -> h264 (libx264))\nPress [q] to stop, [?] for help\n[libx264 @ 0000026ef49ccb80] using cpu capabilities: MMX2 SSE2Fast SSSE3 SSE4.2 AVX FMA3 BMI2 AVX2\n[libx264 @ 0000026ef49ccb80] profile High, level 5.0, 4:2:0, 8-bit\n[libx264 @ 0000026ef49ccb80] 264 - core 165 r3222 b35605a - H.264/MPEG-4 AVC codec - Copyleft 2003-2025 - http://www.videolan.org/x264.html - options: cabac=1 ref=5 deblock=1:0:0 analyse=0x3:0x113 me=hex subme=8 psy=1 psy_rd=1.00:0.00 mixed_ref=1 me_range=16 chroma_me=1 trellis=2 8x8dct=1 cqm=0 deadzone=21,11 fast_pskip=1 chroma_qp_offset=-2 threads=18 lookahead_threads=3 sliced_threads=0 nr=0 decimate=1 interlaced=0 bluray_compat=0 constrained_intra=0 bframes=3 b_pyramid=2 b_adapt=1 b_bias=0 direct=3 weightb=1 open_gop=0 weightp=2 keyint=250 keyint_min=25 scenecut=40 intra_refresh=0 rc_lookahead=50 rc=cbr mbtree=1 bitrate=4000 ratetol=1.0 qcomp=0.60 qpmin=0 qpmax=69 qpstep=4 vbv_maxrate=4000 vbv_bufsize=4000 nal_hrd=none filler=0 ip_ratio=1.40 aq=1:1.00\nOutput #0, mp4, to 'C:\\Users\\Peter\\Desktop\\stuff\\MIUN\\quantitative_research\\video_compression\\compressed_videos\\BVI-HD\\h264\\4\\Bookcase_1920x1080_60fps_h264.mp4':\n  Metadata:\n    major_brand     : isom\n    minor_version   : 512\n    compatible_brands: isomiso2avc1mp41\n    encoder         : Lavf62.3.100\n  Stream #0:0(und): Video: h264 (avc1 / 0x31637661), yuv420p(tv, progressive), 1920x1080, q=2-31, 4000 kb/s, 60 fps, 15360 tbn (default)\n    Metadata:\n      encoder         : Lavc62.11.100 libx264\n      handler_name    : VideoHandler\n      vendor_id       : [0][0][0][0]\n    Side data:\n      cpb: bitrate max/min/avg: 4000000/0/4000000 buffer size: 4000000 vbv_delay: N/A\nframe=    0 fps=0.0 q=0.0 size=       0KiB time=N/A bitrate=N/A speed=N/A elapsed=0:00:00.51    \nframe=    0 fps=0.0 q=0.0 size=       0KiB time=N/A bitrate=N/A speed=N/A elapsed=0:00:01.03    \nframe=    0 fps=0.0 q=0.0 size=       0KiB time=N/A bitrate=N/A speed=N/A elapsed=0:00:01.56    \nframe=   15 fps=7.0 q=33.0 size=       0KiB time=00:00:00.16 bitrate=   2.3kbits/s speed=0.0783x elapsed=0:00:02.12    \nframe=   32 fps= 12 q=35.0 size=       0KiB time=00:00:00.45 bitrate=   0.9kbits/s speed=0.163x elapsed=0:00:02.75    \nframe=   58 fps= 18 q=34.0 size=     256KiB time=00:00:00.85 bitrate=2467.7kbits/s speed=0.257x elapsed=0:00:03.30    \nframe=   94 fps= 24 q=33.0 size=     512KiB time=00:00:01.40 bitrate=2996.2kbits/s speed=0.357x elapsed=0:00:03.92    \nframe=  115 fps= 24 q=34.0 size=     512KiB time=00:00:01.86 bitrate=2247.2kbits/s speed=0.395x elapsed=0:00:04.72    \nframe=  147 fps= 27 q=33.0 size=     768KiB time=00:00:02.28 bitrate=2755.6kbits/s speed=0.419x elapsed=0:00:05.45    \nframe=  170 fps= 27 q=33.0 size=     768KiB time=00:00:02.75 bitrate=2287.9kbits/s speed=0.443x elapsed=0:00:06.20    \nframe=  193 fps= 28 q=34.0 size=    1024KiB time=00:00:03.15 bitrate=2663.2kbits/s speed=0.461x elapsed=0:00:06.82    \nframe=  214 fps= 29 q=34.0 size=    1280KiB time=00:00:03.53 bitrate=2967.8kbits/s speed=0.472x elapsed=0:00:07.49    \nframe=  232 fps= 29 q=34.0 size=    1280KiB time=00:00:03.83 bitrate=2735.5kbits/s speed=0.474x elapsed=0:00:08.07    \nframe=  254 fps= 29 q=34.0 size=    1536KiB time=00:00:04.20 bitrate=2996.0kbits/s speed=0.484x elapsed=0:00:08.68    \nframe=  278 fps= 30 q=35.0 size=    1792KiB time=00:00:04.60 bitrate=3191.4kbits/s speed=0.497x elapsed=0:00:09.25    \n[mp4 @ 0000026ef49dd700] Starting second pass: moving the moov atom to the beginning of the file\n[out#0/mp4 @ 0000026ef49d18c0] video:2133KiB audio:0KiB subtitle:0KiB other streams:0KiB global headers:0KiB muxing overhead: 0.195512%\nframe=  300 fps= 31 q=-1.0 Lsize=    2137KiB time=00:00:04.96 bitrate=3525.6kbits/s speed=0.509x elapsed=0:00:09.75    \n[libx264 @ 0000026ef49ccb80] frame I:2     Avg QP:29.87  size: 57542\n[libx264 @ 0000026ef49ccb80] frame P:93    Avg QP:31.77  size: 17943\n[libx264 @ 0000026ef49ccb80] frame B:205   Avg QP:29.12  size:  1951\n[libx264 @ 0000026ef49ccb80] consecutive B-frames:  2.3% 11.3% 25.0% 61.3%\n[libx264 @ 0000026ef49ccb80] mb I  I16..4: 28.3% 68.0%  3.7%\n[libx264 @ 0000026ef49ccb80] mb P  I16..4:  9.9% 11.8%  0.4%  P16..4: 30.3%  4.6%  2.1%  0.0%  0.0%    skip:40.8%\n[libx264 @ 0000026ef49ccb80] mb B  I16..4:  0.4%  0.2%  0.0%  B16..8: 22.7%  0.3%  0.0%  direct: 0.1%  skip:76.2%  L0:31.1% L1:68.7% BI: 0.3%\n[libx264 @ 0000026ef49ccb80] 8x8 transform intra:53.7% inter:88.3%\n[libx264 @ 0000026ef49ccb80] direct mvs  spatial:95.6% temporal:4.4%\n[libx264 @ 0000026ef49ccb80] coded y,uvDC,uvAC intra: 27.8% 43.1% 7.5% inter: 3.7% 3.6% 0.1%\n[libx264 @ 0000026ef49ccb80] i16 v,h,dc,p: 58% 27%  4% 11%\n[libx264 @ 0000026ef49ccb80] i8 v,h,dc,ddl,ddr,vr,hd,vl,hu: 34% 18% 18%  3%  5%  5%  6%  7%  5%\n[libx264 @ 0000026ef49ccb80] i4 v,h,dc,ddl,ddr,vr,hd,vl,hu: 30% 17%  6%  5% 12% 10% 10%  6%  5%\n[libx264 @ 0000026ef49ccb80] i8c dc,h,v,p: 33% 26% 31% 10%\n[libx264 @ 0000026ef49ccb80] Weighted P-Frames: Y:0.0% UV:0.0%\n[libx264 @ 0000026ef49ccb80] ref P L0: 76.2% 19.6%  2.9%  0.7%  0.6%  0.1%\n[libx264 @ 0000026ef49ccb80] ref B L0: 95.6%  3.4%  0.8%  0.2%\n[libx264 @ 0000026ef49ccb80] ref B L1: 99.2%  0.8%\n[libx264 @ 0000026ef49ccb80] kb/s:3494.02\n",
  "seconds": 10.754493474960327,
  "probe_out": {}
}